PathFileType	4	(X/Y/Z)	/home/nbianco/projects/addbio/data/HamnerRunning2013/Processed/subject19//results/MarkerData/run300.trc
DataRate	CameraRate	NumFrames	NumMarkers	Units	OrigDataRate	OrigDataStartFrame	OrigNumFrames
120.005	120.005	8	42	m	120.005	65	261
Frame#	Time	C7			CLAV			LACR			LASI			LCAL			LFAradius			LFAsuperior			LFAulna			LLEL			LMEL			LMT5			LPSI			LTB1			LTB2			LTB3			LTH1			LTH2			LTH3			LTOE			LUA1			LUA2			LUA3			RACR			RASI			RCAL			RFAradius			RFAsuperior			RFAulna			RLEL			RMEL			RMT5			RPSI			RTB1			RTB2			RTB3			RTH1			RTH2			RTH3			RTOE			RUA1			RUA2			RUA3		
		X1	Y1	Z1	X2	Y2	Z2	X3	Y3	Z3	X4	Y4	Z4	X5	Y5	Z5	X6	Y6	Z6	X7	Y7	Z7	X8	Y8	Z8	X9	Y9	Z9	X10	Y10	Z10	X11	Y11	Z11	X12	Y12	Z12	X13	Y13	Z13	X14	Y14	Z14	X15	Y15	Z15	X16	Y16	Z16	X17	Y17	Z17	X18	Y18	Z18	X19	Y19	Z19	X20	Y20	Z20	X21	Y21	Z21	X22	Y22	Z22	X23	Y23	Z23	X24	Y24	Z24	X25	Y25	Z25	X26	Y26	Z26	X27	Y27	Z27	X28	Y28	Z28	X29	Y29	Z29	X30	Y30	Z30	X31	Y31	Z31	X32	Y32	Z32	X33	Y33	Z33	X34	Y34	Z34	X35	Y35	Z35	X36	Y36	Z36	X37	Y37	Z37	X38	Y38	Z38	X39	Y39	Z39	X40	Y40	Z40	X41	Y41	Z41	X42	Y42	Z42

66	0.691667	1.0223	1.49374	-0.356601	1.12455	1.40342	-0.305977	1.0883	1.45169	-0.525064	1.06003	0.97991	-0.439371	0.677632	0.133343	-0.353885	1.19578	1.19714	-0.473748	1.06408	1.17597	-0.608207	1.20074	1.1308	-0.479402	0.983814	1.17345	-0.639024	0.935615	1.17013	-0.579881	0.858604	0.0411522	-0.417046	0.893652	1.02196	-0.374334	0.972139	0.347123	-0.388138	0.883778	0.286879	-0.429761	0.850383	0.197859	-0.360853	0.987944	0.811735	-0.499178	1.05795	0.708787	-0.480247	0.978484	0.585553	-0.456509	0.873118	0.0743382	-0.309143	1.06348	1.37207	-0.577437	0.994432	1.32356	-0.56684	1.0516	1.26963	-0.599619	1.03376	1.45454	-0.160544	1.05657	0.980854	-0.203178	0.850261	0.351228	-0.297055	0.926314	1.00441	-0.0688741	0.85544	1.17141	-0.0860235	0.866194	0.983186	-0.093805	0.803497	1.24265	-0.126435	0.812802	1.23085	-0.192611	0.934681	0.1846	-0.184317	0.892403	1.01984	-0.27804	1.18976	0.452764	-0.249095	1.10634	0.46059	-0.196792	1.03778	0.353844	-0.254826	1.04094	0.825344	-0.151554	1.19045	0.747053	-0.174486	1.18696	0.644199	-0.185488	0.979907	0.185402	-0.284598	0.979487	1.38762	-0.122847	0.95565	1.30505	-0.13294	0.874997	1.33166	-0.149336
67	0.7	1.02261	1.50126	-0.356034	1.12413	1.41186	-0.303768	1.0909	1.4607	-0.523129	1.06202	0.984918	-0.439627	0.657998	0.14337	-0.355417	1.1981	1.21468	-0.469099	1.07058	1.18614	-0.606382	1.20588	1.14857	-0.474108	0.991021	1.181	-0.638292	0.941608	1.1777	-0.58028	0.833554	0.041306	-0.416606	0.895865	1.02894	-0.376034	0.953126	0.353447	-0.387974	0.864786	0.293941	-0.430764	0.830627	0.204506	-0.361974	0.984606	0.817103	-0.498733	1.05078	0.712209	-0.478395	0.965759	0.592383	-0.45586	0.849706	0.0751832	-0.30971	1.06744	1.38103	-0.576075	0.99905	1.33208	-0.567383	1.05745	1.27828	-0.598303	1.03068	1.46257	-0.160648	1.05737	0.989014	-0.203762	0.873168	0.328587	-0.300153	0.920162	1.0156	-0.0681022	0.849644	1.18273	-0.0884121	0.860323	0.99409	-0.0936844	0.798427	1.2533	-0.130635	0.809186	1.24123	-0.196668	0.969296	0.170648	-0.184548	0.893323	1.02733	-0.279432	1.20262	0.459009	-0.248561	1.11797	0.460092	-0.196744	1.05893	0.347413	-0.255206	1.04321	0.835155	-0.150232	1.19283	0.757847	-0.17404	1.18998	0.654921	-0.184999	1.01592	0.17453	-0.284237	0.975623	1.39695	-0.123532	0.95168	1.31412	-0.133744	0.871393	1.34135	-0.151563
68	0.708333	1.02301	1.50909	-0.355334	1.12388	1.42063	-0.301527	1.09341	1.46991	-0.521159	1.06447	0.990379	-0.439782	0.639975	0.15449	-0.356884	1.19942	1.23197	-0.464943	1.07619	1.19678	-0.604759	1.20973	1.16612	-0.4692	0.997342	1.18927	-0.637595	0.946727	1.18605	-0.580657	0.808854	0.0417927	-0.416665	0.898559	1.03634	-0.377998	0.935038	0.360959	-0.3879	0.847011	0.30186	-0.432112	0.812269	0.211976	-0.363482	0.981586	0.823261	-0.498174	1.04437	0.716481	-0.476431	0.95405	0.600269	-0.455877	0.826833	0.0757155	-0.310233	1.07121	1.39039	-0.574782	1.00317	1.34116	-0.567836	1.06268	1.28743	-0.597042	1.02799	1.47079	-0.160692	1.05831	0.997503	-0.204255	0.897713	0.306366	-0.302846	0.914853	1.02686	-0.0677297	0.844786	1.19412	-0.0906794	0.855248	1.00502	-0.0936148	0.794061	1.26412	-0.134361	0.805688	1.25206	-0.200204	1.00494	0.157454	-0.185072	0.894531	1.03519	-0.280953	1.21425	0.464546	-0.247786	1.12892	0.458737	-0.196487	1.0804	0.340882	-0.255485	1.04564	0.845724	-0.148764	1.19451	0.767746	-0.173688	1.1914	0.664898	-0.184765	1.05261	0.164838	-0.284007	0.972285	1.40635	-0.124091	0.948279	1.32322	-0.134762	0.86834	1.3513	-0.153379
69	0.716667	1.02349	1.51698	-0.354568	1.12371	1.42948	-0.299354	1.09583	1.47914	-0.519191	1.06725	0.996101	-0.439658	0.623729	0.166602	-0.358308	1.19994	1.24871	-0.461276	1.08099	1.20771	-0.603341	1.21248	1.18313	-0.464509	1.00281	1.19804	-0.637009	0.951039	1.19493	-0.581016	0.784483	0.0426276	-0.417049	0.901605	1.04398	-0.380129	0.918076	0.369253	-0.388388	0.830394	0.310441	-0.433819	0.795438	0.220012	-0.365354	0.979274	0.829991	-0.497711	1.03867	0.721328	-0.474438	0.943477	0.608785	-0.456586	0.804399	0.0759988	-0.310649	1.07485	1.39997	-0.573624	1.00681	1.35067	-0.568135	1.06729	1.29691	-0.595885	1.02574	1.47902	-0.160631	1.0593	1.00622	-0.204716	0.923693	0.285013	-0.304803	0.910341	1.03797	-0.0676799	0.840639	1.20537	-0.092716	0.85106	1.01583	-0.0937068	0.790378	1.27495	-0.137565	0.802526	1.26296	-0.2032	1.04151	0.144979	-0.186061	0.896033	1.04334	-0.282635	1.22471	0.469331	-0.246835	1.13944	0.456525	-0.19594	1.10205	0.334419	-0.255618	1.04811	0.856756	-0.147245	1.19535	0.776537	-0.173461	1.19129	0.673829	-0.184843	1.08958	0.156375	-0.284248	0.969429	1.41568	-0.124564	0.945344	1.33233	-0.13577	0.865763	1.36131	-0.15495
70	0.725	1.02405	1.52475	-0.35377	1.1236	1.43819	-0.297338	1.09814	1.48823	-0.517258	1.07029	1.00188	-0.439238	0.609339	0.179591	-0.359742	1.19983	1.2647	-0.458046	1.08503	1.21867	-0.602138	1.21429	1.19937	-0.460041	1.00747	1.2071	-0.636584	0.95461	1.20409	-0.581398	0.760455	0.0439328	-0.417536	0.904883	1.05164	-0.382302	0.902304	0.378007	-0.389606	0.814815	0.319518	-0.435803	0.780119	0.228398	-0.367545	0.97786	0.83704	-0.497547	1.03364	0.726516	-0.472563	0.934042	0.617571	-0.45781	0.782389	0.076354	-0.311021	1.07829	1.40959	-0.57258	1.01002	1.36044	-0.568188	1.07128	1.30654	-0.594871	1.02392	1.48709	-0.160458	1.06031	1.01502	-0.205222	0.950846	0.264865	-0.305778	0.906542	1.04878	-0.0678642	0.837063	1.21633	-0.0945098	0.847585	1.0265	-0.0939807	0.787341	1.28561	-0.140221	0.799864	1.27367	-0.205713	1.07883	0.1332	-0.187692	0.897802	1.05161	-0.284479	1.2341	0.473394	-0.245831	1.14975	0.453478	-0.195105	1.1237	0.328198	-0.25557	1.05049	0.867919	-0.145824	1.19516	0.784055	-0.173405	1.18982	0.681475	-0.185247	1.12639	0.149171	-0.285278	0.967021	1.42487	-0.124969	0.942822	1.34141	-0.136537	0.863602	1.37123	-0.156361
71	0.733333	1.02465	1.53224	-0.352954	1.12352	1.44653	-0.295514	1.10032	1.49704	-0.515366	1.07354	1.00758	-0.438632	0.59682	0.193359	-0.361263	1.19925	1.27972	-0.45522	1.08837	1.22936	-0.601147	1.21527	1.21463	-0.455875	1.01139	1.21619	-0.636338	0.957522	1.21331	-0.581869	0.736927	0.0460084	-0.417992	0.908288	1.05914	-0.384407	0.887666	0.387045	-0.391353	0.800171	0.328957	-0.437894	0.766185	0.237005	-0.369932	0.977334	0.84416	-0.49779	1.02923	0.731891	-0.47093	0.925635	0.626446	-0.459234	0.760941	0.0772967	-0.311479	1.08143	1.41905	-0.571553	1.0129	1.37029	-0.567959	1.07469	1.31614	-0.594039	1.02255	1.49488	-0.160198	1.06142	1.02372	-0.205781	0.978874	0.246165	-0.305647	0.903383	1.05915	-0.0681477	0.833987	1.22687	-0.0960956	0.844615	1.03693	-0.094412	0.784866	1.29593	-0.142361	0.797729	1.28405	-0.207848	1.11666	0.122162	-0.190081	0.8998	1.05982	-0.286423	1.2425	0.476769	-0.244903	1.16002	0.44966	-0.194065	1.14522	0.322397	-0.255318	1.05271	0.878904	-0.144669	1.19385	0.79022	-0.173518	1.18716	0.68773	-0.185902	1.16266	0.143323	-0.28722	0.965046	1.43383	-0.125285	0.940677	1.35033	-0.136961	0.861814	1.38093	-0.15762
72	0.741667	1.02527	1.53928	-0.352128	1.1235	1.4543	-0.29387	1.10236	1.50539	-0.513491	1.07694	1.01315	-0.437995	0.586123	0.207817	-0.36293	1.19836	1.2936	-0.452828	1.09107	1.23952	-0.600348	1.21551	1.22876	-0.452075	1.01465	1.22507	-0.636272	0.959888	1.22236	-0.58252	0.714219	0.049259	-0.418381	0.911726	1.06631	-0.386384	0.874104	0.396329	-0.393223	0.786472	0.338657	-0.439894	0.753477	0.245808	-0.372287	0.977552	0.85112	-0.498429	1.02534	0.737374	-0.469554	0.918095	0.635406	-0.460505	0.740298	0.0793571	-0.312125	1.08421	1.42817	-0.570432	1.01551	1.37997	-0.567487	1.07756	1.32552	-0.593412	1.02157	1.50225	-0.159878	1.06273	1.03214	-0.206316	1.00744	0.22909	-0.304434	0.900816	1.069	-0.0683923	0.831369	1.23684	-0.0975032	0.842098	1.04692	-0.0949813	0.782827	1.30574	-0.144068	0.796027	1.29404	-0.20969	1.15465	0.112003	-0.193249	0.902009	1.06779	-0.288383	1.24998	0.4795	-0.244125	1.17039	0.445285	-0.19289	1.16652	0.317228	-0.254871	1.05481	0.889404	-0.143946	1.19146	0.79504	-0.173713	1.18348	0.692618	-0.186644	1.19813	0.139004	-0.28996	0.963493	1.44246	-0.125457	0.938856	1.3589	-0.137064	0.860365	1.39033	-0.158694
73	0.75	1.02588	1.54571	-0.351306	1.12353	1.46136	-0.292373	1.10423	1.51312	-0.511606	1.08041	1.01861	-0.437473	0.577107	0.222837	-0.364728	1.19726	1.30618	-0.450912	1.0932	1.24892	-0.599724	1.21508	1.24161	-0.448671	1.01731	1.23349	-0.636387	0.961828	1.23103	-0.583445	0.692707	0.0540204	-0.418702	0.915108	1.07305	-0.388213	0.861686	0.405881	-0.394807	0.773899	0.348535	-0.44164	0.741854	0.254843	-0.374339	0.978313	0.857738	-0.499368	1.0219	0.742932	-0.46839	0.911275	0.644509	-0.461306	0.720685	0.0828836	-0.312959	1.0866	1.43683	-0.569179	1.01787	1.38923	-0.566877	1.07996	1.33449	-0.592998	1.02094	1.50909	-0.159504	1.06427	1.04009	-0.206737	1.03615	0.213759	-0.302321	0.898798	1.07822	-0.068543	0.829163	1.24612	-0.0987347	0.840147	1.05613	-0.0956813	0.781107	1.31488	-0.145437	0.794637	1.30356	-0.211257	1.19241	0.102994	-0.197127	0.904417	1.07531	-0.2903	1.25653	0.481669	-0.243504	1.18089	0.440744	-0.191573	1.18739	0.312928	-0.254268	1.05675	0.899002	-0.143781	1.18817	0.798568	-0.173858	1.179	0.696217	-0.18731	1.23255	0.13642	-0.293221	0.962335	1.45061	-0.125442	0.937296	1.36697	-0.136908	0.859226	1.39931	-0.159549
